<svg width="48" height="48" viewBox="0 0 48 48" fill="none" xmlns="http://www.w3.org/2000/svg">
<path d="M24 5.99998C27.0997 5.9954 30.1471 6.79844 32.842 8.32998L30.586 10.586C30.3064 10.8657 30.116 11.222 30.0388 11.6099C29.9617 11.9978 30.0013 12.3999 30.1526 12.7653C30.304 13.1307 30.5603 13.443 30.8891 13.6628C31.2179 13.8826 31.6045 13.9999 32 14H40C40.5304 14 41.0391 13.7893 41.4142 13.4142C41.7893 13.0391 42 12.5304 42 12V3.99998C41.9999 3.60448 41.8826 3.21789 41.6628 2.88907C41.443 2.56025 41.1307 2.30397 40.7653 2.15263C40.3999 2.00129 39.9978 1.96168 39.6099 2.03882C39.222 2.11595 38.8657 2.30637 38.586 2.58598L35.766 5.39998C32.438 3.29353 28.6055 2.11913 24.6687 1.99942C20.7318 1.87971 16.8351 2.81907 13.3852 4.71943C9.93535 6.61979 7.05892 9.41144 5.05624 12.8029C3.05356 16.1944 1.99808 20.0613 2 24C2 24.5304 2.21072 25.0391 2.58579 25.4142C2.96086 25.7893 3.46957 26 4 26C4.53044 26 5.03914 25.7893 5.41422 25.4142C5.78929 25.0391 6 24.5304 6 24C6.0053 19.2277 7.90342 14.6524 11.2779 11.2779C14.6524 7.9034 19.2277 6.00528 24 5.99998Z" fill="url(#paint0_linear_387_3515)"/>
<path d="M44 22C43.4696 22 42.9609 22.2107 42.5858 22.5858C42.2107 22.9608 42 23.4696 42 24C41.9947 28.7723 40.0966 33.3476 36.7221 36.7221C33.3476 40.0966 28.7723 41.9947 24 42C20.9006 42.0055 17.8534 41.2017 15.16 39.668L17.414 37.414C17.6936 37.1343 17.884 36.778 17.9612 36.39C18.0383 36.0021 17.9987 35.6001 17.8474 35.2347C17.696 34.8693 17.4397 34.5569 17.1109 34.3372C16.7821 34.1174 16.3955 34.0001 16 34H8C7.46957 34 6.96086 34.2107 6.58579 34.5858C6.21072 34.9608 6 35.4696 6 36V44C5.9999 44.3955 6.11709 44.7822 6.33673 45.1111C6.55638 45.4401 6.86863 45.6965 7.234 45.848C7.47667 45.9492 7.73709 46.0008 8 46C8.53039 45.9999 9.03902 45.7891 9.414 45.414L12.236 42.6C15.752 44.834 19.8344 46.0139 24 46C29.8327 45.9931 35.4244 43.673 39.5488 39.5487C43.6731 35.4244 45.9931 29.8326 46 24C46 23.4696 45.7893 22.9608 45.4142 22.5858C45.0391 22.2107 44.5304 22 44 22Z" fill="url(#paint1_linear_387_3515)"/>
<defs>
<linearGradient id="paint0_linear_387_3515" x1="24" y1="1.98926" x2="24" y2="46.0001" gradientUnits="userSpaceOnUse">
<stop stop-color="white"/>
<stop offset="1" stop-color="#E2EAFD"/>
</linearGradient>
<linearGradient id="paint1_linear_387_3515" x1="24" y1="1.98926" x2="24" y2="46.0001" gradientUnits="userSpaceOnUse">
<stop stop-color="white"/>
<stop offset="1" stop-color="#E2EAFD"/>
</linearGradient>
</defs>
</svg>
